<?xml version="1.0" encoding="utf-8"?>
<!-- Generator: Adobe Illustrator 15.0.0, SVG Export Plug-In . SVG Version: 6.00 Build 0)  -->
<!DOCTYPE svg PUBLIC "-//W3C//DTD SVG 1.1//EN" "http://www.w3.org/Graphics/SVG/1.1/DTD/svg11.dtd">
<svg version="1.1" id="Layer_1" xmlns="http://www.w3.org/2000/svg" xmlns:xlink="http://www.w3.org/1999/xlink" x="0px" y="0px"
	 width="360px" height="107.451px" viewBox="0 0 360 107.451" enable-background="new 0 0 360 107.451" xml:space="preserve">
<g>
	<path fill="#231F20" d="M112.16,89.412l-1.601-2.62c-1.964,2.037-4.73,3.348-7.859,3.348c-6.041,0-10.916-4.875-10.916-10.917
		v-4.366c0-6.04,4.875-10.917,10.916-10.917h7.277v-8.004c0-4.003-3.275-7.278-7.277-7.278s-7.278,3.275-7.278,7.278v4.366h-3.638
		v-4.366c0-6.041,4.875-10.917,10.916-10.917s10.916,4.876,10.916,10.917v33.477H112.16z M109.977,67.579H102.7
		c-4.002,0-7.278,3.275-7.278,7.277v4.366c0,4.003,3.275,7.278,7.278,7.278s7.277-3.275,7.277-7.278V67.579z"/>
	<path fill="#231F20" d="M129.99,90.14c-6.04,0-10.917-4.875-10.917-10.917V55.936c0-6.041,4.876-10.917,10.917-10.917
		c6.041,0,10.916,4.876,10.916,10.917v4.366h-3.639v-4.366c0-4.003-3.274-7.278-7.277-7.278s-7.278,3.275-7.278,7.278v23.287
		c0,4.003,3.275,7.278,7.278,7.278s7.277-3.275,7.277-7.278v-4.366h3.639v4.366C140.906,85.265,136.031,90.14,129.99,90.14z"/>
	<path fill="#231F20" d="M159.1,89.412c-6.04,0-10.916-4.876-10.916-10.917v-29.11h-3.639v-3.639h3.639v-7.277h3.638v7.277h10.916
		v3.639h-10.916v29.11c0,4.004,3.275,7.277,7.277,7.277h3.638v3.64H159.1z"/>
	<path fill="#231F20" d="M167.103,34.831v-3.639h3.639v3.639H167.103z M167.103,89.412V45.746h3.639v43.666H167.103z"/>
	<path fill="#231F20" d="M188.572,89.412h-3.639l-9.825-43.666h3.639l8.005,34.932l8.006-34.932h3.638L188.572,89.412z"/>
	<path fill="#231F20" d="M212.952,90.14c-6.04,0-10.917-4.875-10.917-10.917V55.936c0-6.041,4.877-10.917,10.917-10.917
		s10.916,4.876,10.916,10.917v11.644h-18.194v11.644c0,4.003,3.274,7.278,7.278,7.278c4.002,0,7.276-3.275,7.276-7.278v-4.366h3.64
		v4.366C223.868,85.265,218.992,90.14,212.952,90.14z M220.229,55.936c0-4.003-3.274-7.278-7.276-7.278
		c-4.004,0-7.278,3.275-7.278,7.278v8.004h14.555V55.936z"/>
	<path fill="#C02126" d="M229.907,89.412v-58.22h5.677v58.22H229.907z"/>
	<path fill="#C02126" d="M261.636,89.412l-1.164-1.965c-1.965,1.673-4.585,2.692-7.35,2.692c-6.404,0-11.571-5.168-11.571-11.571
		v-4.221c0-6.405,5.167-11.572,11.571-11.572h5.968V56.08c0-3.274-2.693-5.966-5.968-5.966c-3.275,0-5.968,2.692-5.968,5.966v5.24
		h-5.604v-5.24c0-6.403,5.167-11.571,11.571-11.571c6.403,0,11.57,5.167,11.57,11.571v33.332H261.636z M259.09,68.38h-5.968
		c-3.275,0-5.968,2.691-5.968,5.968v4.221c0,3.274,2.692,5.968,5.968,5.968c3.274,0,5.968-2.693,5.968-5.968V68.38z"/>
	<path fill="#C02126" d="M305.082,89.412V56.08c0-3.274-2.692-5.966-5.968-5.966c-3.274,0-5.968,2.692-5.968,5.966v33.332h-5.603
		V56.08c0-3.274-2.693-5.966-5.968-5.966c-3.275,0-5.967,2.692-5.967,5.966v33.332h-5.604V45.237h3.056l1.164,1.893
		c1.966-1.601,4.513-2.62,7.351-2.62c3.494,0,6.623,1.528,8.733,4.002c2.11-2.474,5.312-4.002,8.805-4.002
		c6.405,0,11.572,5.167,11.572,11.571v33.332H305.082z"/>
	<path fill="#C02126" d="M327.57,90.14c-2.184,0-4.222-0.655-5.969-1.674v14.991h-5.603v-58.22h3.057l1.164,1.893
		c1.965-1.601,4.512-2.62,7.351-2.62c6.404,0,11.57,5.167,11.57,11.571v22.488C339.141,84.972,333.975,90.14,327.57,90.14z
		 M333.538,56.08c0-3.274-2.693-5.966-5.968-5.966c-3.275,0-5.969,2.692-5.969,5.966v22.488c0,3.274,2.693,5.895,5.969,5.895
		c3.274,0,5.968-2.62,5.968-5.895V56.08z"/>
</g>
<g>
	<path fill="#C02126" d="M39.687,86.642c0.963,1.541,7.548,8.781,19.224,7.04c13.711-2.044,15.104-12.854,15.104-12.854
		C60.502,96.683,42.569,88.183,39.687,86.642z"/>
	<path fill="#C02126" d="M63.68,41.874c11.179-0.219,21.907-18.044,31.509-27.798c12.625-12.822,26.887-8.632,30.756-6.932
		C109.953-0.23,98.928,5.706,84.066,21.226c-12.276,12.82-18.36,14.689-21.276,14.45c1.639-1.101,2.718-2.97,2.718-5.093
		c0-3.386-2.744-6.13-6.13-6.13c-2.651,0-4.902,1.686-5.757,4.042c-0.007,0.014-0.014,0.026-0.021,0.04
		C51.644,32.928,54.89,42.046,63.68,41.874z"/>
	<path fill="#C02126" d="M84.309,37.929C68.92,68.704,63.001,72.256,54.715,73.438c-8.285,1.185-20.497-3.549-18.13-18.938
		c2.164-14.062,23.674-13.01,21.074,2.542c2.514-2.807,5.72-17.848-11.788-18.472c-6.185-0.22-12.616,3.25-16.298,8.335
		c-3.683,5.085-4.768,7.74-10.349,10.75c-7.858,4.238-10.585,10.145-8.314,16.63c2.1,5.998,11.707,7.72,14.987,3.799
		c2.789-3.782,0.824-8.385-3.838-8.33c-3.239,0.038-4.67,2.526-4.688,5.126c-1.582-0.794-4.25-3.029-1.874-7.966
		c2.064-4.289,7.823-5.935,11.502-6.195c0.127,3.956,1.039,7.676,2.483,10.353c5.303,9.827,17.295,15.271,31.96,10.653
		c15.018-4.731,23.2-32.833,26.042-40.247c3.177-8.286,11.836-31.96,31.96-34.013C114.63,7.293,99.697,7.152,84.309,37.929z
		 M33.068,64.655c-1.229-1.297-3.774-10.025-0.873-15.464c4.322-8.1,11.872-6.984,11.872-6.984
		C28.695,46.395,33.068,64.655,33.068,64.655z"/>
</g>
</svg>
