<?xml version="1.0" encoding="utf-8"?>
<!-- Generator: Adobe Illustrator 15.0.0, SVG Export Plug-In . SVG Version: 6.00 Build 0)  -->
<!DOCTYPE svg PUBLIC "-//W3C//DTD SVG 1.1//EN" "http://www.w3.org/Graphics/SVG/1.1/DTD/svg11.dtd">
<svg version="1.1" id="Layer_1" xmlns="http://www.w3.org/2000/svg" xmlns:xlink="http://www.w3.org/1999/xlink" x="0px" y="0px"
	  viewBox="0 0 168.667 130" enable-background="new 0 0 168.667 130" xml:space="preserve">
<polygon fill="#FFFFFF" points="29.667,0 1.167,28.5 84.167,111.5 167.167,28.5 138.667,0 "/>
<polygon opacity="0.3" fill="#FFFFFF" enable-background="new    " points="45.667,0 1.167,44.5 84.167,127.5 167.167,44.5 
	122.667,0 "/>
<polygon opacity="0.65" fill="#FFFFFF" enable-background="new    " points="37.667,0 1.167,36.5 84.167,119.5 167.167,36.5 
	130.667,0 "/>
<g enable-background="new    ">
	<path fill="#F2B600" d="M24.703,10.765h3.898v6.597h7.571v-6.597h3.898v17.69h-3.898V20.81h-7.571v7.646h-3.898V10.765z"/>
	<path fill="#F2B600" d="M44.816,10.765h12.019v3.598h-8.121v3.299h7.671v3.598h-7.671v3.599h8.57v3.598H44.816V10.765z"/>
	<path fill="#F2B600" d="M67.229,10.765h3.223l7.696,17.69H73.75l-1.524-3.748h-6.871l-1.475,3.748h-4.297L67.229,10.765z
		 M68.729,15.912l-2.149,5.497h4.323L68.729,15.912z"/>
</g>
<g enable-background="new    ">
	<path fill="#F2B600" d="M82.57,10.765h3.898v14.093h7.221v3.598H82.57V10.765z"/>
</g>
<g enable-background="new    ">
	<path fill="#F2B600" d="M98.487,14.213h-5.048v-3.448h13.993v3.448h-5.048v14.242h-3.897V14.213z"/>
</g>
<g enable-background="new    ">
	<path fill="#F2B600" d="M110.905,10.765h3.897v6.597h7.571v-6.597h3.897v17.69h-3.897V20.81h-7.571v7.646h-3.897V10.765z"/>
</g>
<g enable-background="new    ">
	<path fill="#192F6C" d="M31.78,34.122h1.937l3.352,12.243h0.042l3.623-12.243h1.957l3.602,12.243h0.042l3.415-12.243h1.833
		l-4.331,14.742h-1.895l-3.644-12.493h-0.042l-3.665,12.493H36.09L31.78,34.122z"/>
	<path fill="#192F6C" d="M53.54,34.122h9.266v1.624h-7.517v4.623h7.017v1.624h-7.017v5.247h7.892v1.624H53.54V34.122z"/>
	<path fill="#192F6C" d="M65.887,34.122h1.749V47.24h6.746v1.624h-8.495V34.122z"/>
	<path fill="#192F6C" d="M76.297,34.122h1.749V47.24h6.746v1.624h-8.495V34.122z"/>
	<path fill="#192F6C" d="M86.708,34.122h2.207l8.537,12.243h0.041V34.122h1.75v14.742h-2.207L88.5,36.621h-0.042v12.243h-1.749
		V34.122z"/>
	<path fill="#192F6C" d="M102.908,34.122h9.266v1.624h-7.516v4.623h7.017v1.624h-7.017v5.247h7.891v1.624h-9.641V34.122z"/>
	<path fill="#192F6C" d="M122.251,36.725c-0.291-0.472-0.68-0.814-1.166-1.03c-0.486-0.215-0.992-0.322-1.52-0.322
		c-0.389,0-0.771,0.048-1.146,0.146c-0.374,0.097-0.711,0.243-1.01,0.438c-0.298,0.194-0.537,0.451-0.718,0.77
		c-0.181,0.32-0.271,0.694-0.271,1.125c0,0.333,0.052,0.628,0.156,0.885c0.104,0.257,0.273,0.489,0.51,0.697
		s0.555,0.403,0.958,0.583c0.402,0.181,0.896,0.361,1.479,0.542c0.569,0.181,1.12,0.374,1.655,0.583
		c0.534,0.208,1.006,0.472,1.416,0.791c0.409,0.319,0.735,0.718,0.979,1.197c0.242,0.479,0.364,1.079,0.364,1.801
		c0,0.736-0.146,1.374-0.438,1.916c-0.292,0.541-0.677,0.989-1.155,1.343c-0.479,0.354-1.031,0.618-1.655,0.791
		c-0.625,0.174-1.271,0.261-1.937,0.261c-0.431,0-0.861-0.039-1.291-0.114c-0.431-0.077-0.844-0.195-1.238-0.354
		c-0.396-0.159-0.768-0.367-1.115-0.625c-0.347-0.256-0.645-0.572-0.895-0.947l1.499-1.229c0.319,0.542,0.763,0.951,1.333,1.229
		c0.568,0.278,1.172,0.417,1.811,0.417c0.375,0,0.754-0.056,1.135-0.167c0.383-0.11,0.726-0.273,1.031-0.489
		c0.305-0.215,0.555-0.482,0.75-0.802c0.193-0.319,0.291-0.687,0.291-1.104c0-0.458-0.076-0.829-0.229-1.114
		c-0.153-0.284-0.389-0.53-0.709-0.739c-0.318-0.208-0.721-0.396-1.207-0.562c-0.486-0.167-1.055-0.361-1.707-0.583
		c-0.528-0.167-1.014-0.357-1.458-0.573c-0.444-0.215-0.829-0.479-1.155-0.791s-0.584-0.687-0.771-1.124
		c-0.187-0.438-0.28-0.961-0.28-1.572c0-0.708,0.139-1.325,0.417-1.854c0.277-0.527,0.652-0.968,1.123-1.322
		c0.473-0.354,1.007-0.62,1.604-0.801c0.598-0.181,1.222-0.271,1.875-0.271c0.832,0,1.592,0.129,2.279,0.386
		s1.301,0.704,1.843,1.343L122.251,36.725z"/>
	<path fill="#192F6C" d="M133.828,36.725c-0.291-0.472-0.68-0.814-1.166-1.03c-0.486-0.215-0.992-0.322-1.52-0.322
		c-0.389,0-0.771,0.048-1.146,0.146c-0.374,0.097-0.712,0.243-1.01,0.438s-0.538,0.451-0.718,0.77
		c-0.182,0.32-0.271,0.694-0.271,1.125c0,0.333,0.053,0.628,0.156,0.885c0.104,0.257,0.274,0.489,0.51,0.697
		c0.236,0.208,0.556,0.403,0.959,0.583c0.402,0.181,0.895,0.361,1.479,0.542c0.568,0.181,1.12,0.374,1.654,0.583
		c0.535,0.208,1.007,0.472,1.416,0.791c0.41,0.319,0.736,0.718,0.979,1.197c0.243,0.479,0.365,1.079,0.365,1.801
		c0,0.736-0.146,1.374-0.438,1.916c-0.292,0.541-0.677,0.989-1.156,1.343c-0.479,0.354-1.03,0.618-1.654,0.791
		c-0.625,0.174-1.271,0.261-1.938,0.261c-0.43,0-0.86-0.039-1.291-0.114c-0.43-0.077-0.843-0.195-1.238-0.354
		c-0.396-0.159-0.768-0.367-1.114-0.625c-0.347-0.256-0.646-0.572-0.896-0.947l1.5-1.229c0.318,0.542,0.763,0.951,1.332,1.229
		c0.568,0.278,1.173,0.417,1.812,0.417c0.375,0,0.753-0.056,1.135-0.167c0.382-0.11,0.726-0.273,1.03-0.489
		c0.306-0.215,0.556-0.482,0.75-0.802s0.291-0.687,0.291-1.104c0-0.458-0.076-0.829-0.229-1.114
		c-0.152-0.284-0.389-0.53-0.708-0.739c-0.319-0.208-0.722-0.396-1.208-0.562c-0.486-0.167-1.055-0.361-1.707-0.583
		c-0.527-0.167-1.014-0.357-1.457-0.573c-0.445-0.215-0.83-0.479-1.156-0.791s-0.583-0.687-0.771-1.124
		c-0.187-0.438-0.28-0.961-0.28-1.572c0-0.708,0.139-1.325,0.416-1.854c0.277-0.527,0.652-0.968,1.124-1.322
		c0.472-0.354,1.007-0.62,1.604-0.801s1.222-0.271,1.874-0.271c0.833,0,1.593,0.129,2.279,0.386
		c0.688,0.257,1.302,0.704,1.844,1.343L133.828,36.725z"/>
</g>
<g enable-background="new    ">
	<path fill="#192F6C" d="M142.603,24.925l4.369,4.508h-2.803l-2.748-2.858c-0.807,1.044-1.668,1.864-2.584,2.46
		c-0.916,0.595-2.034,0.894-3.354,0.894c-0.807,0-1.58-0.124-2.322-0.371c-0.742-0.248-1.393-0.609-1.951-1.086
		c-0.56-0.477-1.004-1.059-1.334-1.745c-0.329-0.688-0.494-1.471-0.494-2.351c0-0.714,0.119-1.364,0.357-1.951
		c0.238-0.586,0.563-1.113,0.976-1.58c0.412-0.468,0.884-0.884,1.415-1.251c0.531-0.366,1.09-0.687,1.678-0.962
		c-0.588-0.623-1.113-1.314-1.581-2.075c-0.468-0.76-0.701-1.589-0.701-2.487c0-0.732,0.124-1.383,0.371-1.951
		s0.591-1.049,1.03-1.443c0.44-0.394,0.953-0.691,1.539-0.893c0.587-0.202,1.229-0.303,1.925-0.303c0.642,0,1.245,0.096,1.813,0.288
		s1.067,0.473,1.498,0.839s0.77,0.82,1.018,1.36c0.247,0.541,0.371,1.168,0.371,1.883c0,0.642-0.129,1.214-0.385,1.718
		c-0.258,0.504-0.592,0.962-1.004,1.374s-0.875,0.779-1.388,1.1c-0.513,0.321-1.017,0.609-1.512,0.866l4.479,4.617l2.666-4.617
		h2.227L142.603,24.925z M135.044,19.868c-0.642,0.366-1.188,0.71-1.636,1.03c-0.449,0.321-0.811,0.66-1.085,1.017
		c-0.275,0.357-0.477,0.738-0.605,1.141c-0.128,0.403-0.192,0.853-0.192,1.348c0,0.549,0.11,1.054,0.33,1.511
		c0.22,0.459,0.513,0.849,0.88,1.169c0.365,0.32,0.787,0.572,1.264,0.756c0.477,0.183,0.98,0.274,1.512,0.274
		s1.012-0.073,1.443-0.22c0.43-0.146,0.834-0.348,1.209-0.604s0.729-0.559,1.059-0.907c0.33-0.348,0.65-0.724,0.962-1.127
		L135.044,19.868z M139.112,13.849c0-0.77-0.261-1.388-0.783-1.855c-0.522-0.467-1.159-0.701-1.91-0.701
		c-0.825,0-1.517,0.257-2.075,0.771c-0.559,0.513-0.838,1.209-0.838,2.089c0,0.329,0.078,0.673,0.233,1.03s0.339,0.691,0.55,1.003
		c0.211,0.312,0.43,0.601,0.66,0.866c0.229,0.266,0.426,0.463,0.59,0.591c0.367-0.22,0.76-0.444,1.182-0.674
		c0.422-0.229,0.812-0.489,1.168-0.783c0.357-0.293,0.65-0.632,0.881-1.017C138.998,14.783,139.112,14.344,139.112,13.849z"/>
</g>
<path fill="#80BC2C" d="M113.375,61.655c-0.334-0.808-0.793-1.505-1.381-2.093s-1.281-1.047-2.082-1.379
	c-0.803-0.333-1.673-0.5-2.609-0.5c-0.938,0-1.807,0.167-2.608,0.5c-0.803,0.333-1.495,0.792-2.084,1.379
	c-0.588,0.587-1.048,1.285-1.38,2.093c-0.333,0.808-0.499,1.691-0.499,2.652c0,0.962,0.166,1.846,0.499,2.653
	c0.332,0.809,0.792,1.504,1.38,2.092c0.589,0.589,1.281,1.048,2.084,1.38c0.802,0.333,1.67,0.499,2.608,0.499
	c0.938,0,1.808-0.166,2.609-0.499c0.801-0.332,1.494-0.791,2.082-1.38c0.588-0.588,1.047-1.284,1.381-2.092
	c0.332-0.808,0.498-1.69,0.498-2.653C113.873,63.346,113.707,62.462,113.375,61.655 M112.126,66.382
	c-0.236,0.66-0.578,1.238-1.022,1.736c-0.444,0.5-0.989,0.896-1.631,1.192s-1.364,0.446-2.173,0.446
	c-0.807,0-1.53-0.149-2.172-0.446c-0.643-0.296-1.185-0.692-1.629-1.192c-0.445-0.5-0.787-1.078-1.024-1.736
	s-0.356-1.351-0.356-2.075s0.119-1.415,0.356-2.074c0.237-0.659,0.579-1.237,1.024-1.736c0.444-0.499,0.986-0.896,1.629-1.193
	c0.642-0.296,1.365-0.445,2.172-0.445c0.809,0,1.531,0.149,2.173,0.445c0.642,0.298,1.187,0.695,1.631,1.193
	c0.444,0.5,0.786,1.078,1.022,1.736c0.236,0.66,0.355,1.351,0.355,2.074C112.483,65.031,112.364,65.724,112.126,66.382
	 M88.693,70.611h1.283v-5.858h2.386c1.281,0,2.293-0.282,3.036-0.847c0.741-0.563,1.111-1.409,1.111-2.537s-0.37-1.971-1.111-2.529
	c-0.743-0.558-1.755-0.837-3.036-0.837h-3.669V70.611z M89.976,59.179h2.064c0.569,0,1.054,0.056,1.451,0.169
	c0.397,0.114,0.715,0.27,0.952,0.472c0.237,0.201,0.41,0.436,0.517,0.704c0.107,0.268,0.16,0.548,0.16,0.846
	c0,0.308-0.053,0.596-0.16,0.863c-0.105,0.267-0.278,0.499-0.517,0.694c-0.237,0.195-0.555,0.354-0.952,0.473
	c-0.398,0.118-0.882,0.178-1.451,0.178h-2.064V59.179z M74.216,58.003h-1.728l4.256,5.983l-4.612,6.625h1.602l3.864-5.717
	l3.847,5.717h1.691l-4.63-6.625l4.274-5.983h-1.602l-3.526,5.04L74.216,58.003z M60.717,64.646h6.108v-1.175h-6.108v-4.292h6.536
	v-1.176h-7.817v12.608h8.031v-1.175h-6.75V64.646z"/>
<line fill="none" stroke="#80BC2C" x1="38.911" y1="53.491" x2="129.322" y2="53.491"/>
<line fill="none" stroke="#80BC2C" x1="38.911" y1="6.177" x2="129.322" y2="6.177"/>
<g enable-background="new    ">
	<path fill="#192F6C" d="M65.894,78.707c1.19-1.377,2.72-2.107,4.419-2.107c2.261,0,4.045,1.428,4.045,3.723
		c0,1.953-0.917,2.635-2.72,3.807c-0.816,0.527-2.159,1.598-2.549,2.277h2.992v-1.359h2.855v3.621h-9.179v-2.465
		c0.935-1.529,1.394-2.023,2.482-2.891c1.207-1.07,3.009-1.785,3.009-2.838c0-0.867-0.646-1.123-1.428-1.123
		c-0.917,0-1.581,0.748-2.09,1.293L65.894,78.707z"/>
	<path fill="#192F6C" d="M75.618,82.667c0-3.605,1.972-6.104,4.793-6.104c3.332,0,4.879,2.465,4.879,6.221
		c0,3.775-1.718,6.086-4.794,6.086C77.658,88.871,75.618,86.849,75.618,82.667z M81.873,82.785c0-2.021-0.646-3.484-1.479-3.484
		c-0.629-0.016-1.411,1.293-1.411,3.367c0,2.191,0.833,3.568,1.513,3.568C81.278,86.236,81.873,84.859,81.873,82.785z"/>
	<path fill="#192F6C" d="M85.97,79.011c0.97-0.475,1.734-0.748,2.975-2.227h3.026v9.621h1.581v2.262h-6.799v-2.262h1.699v-6.307
		l-1.699,0.799L85.97,79.011z"/>
	<path fill="#192F6C" d="M102.103,80.15c-0.578-0.34-1.445-0.865-2.482-0.865c-1.258,0.033-2.057,1.053-2.227,2.311
		c0.441-0.441,1.326-0.832,2.227-0.867c2.176-0.084,3.979,1.48,3.979,3.791c0,2.277-1.633,4.217-4.403,4.301
		c-2.788,0.086-4.845-1.92-4.946-5.32c-0.051-2.262,0.527-6.766,4.998-6.9c1.139-0.035,3.008,0.492,4.012,1.342L102.103,80.15z
		 M97.428,84.146c0,0.85,0.493,2.006,1.581,2.006c0.867,0,1.563-0.646,1.547-1.463c-0.018-0.662-0.357-1.529-1.377-1.512
		C98.38,83.21,97.701,83.806,97.428,84.146z"/>
</g>
</svg>
