<?xml version="1.0" encoding="utf-8"?>
<!-- Generator: Adobe Illustrator 15.0.0, SVG Export Plug-In . SVG Version: 6.00 Build 0)  -->
<!DOCTYPE svg PUBLIC "-//W3C//DTD SVG 1.1//EN" "http://www.w3.org/Graphics/SVG/1.1/DTD/svg11.dtd">
<svg version="1.1" id="Layer_1" xmlns="http://www.w3.org/2000/svg" xmlns:xlink="http://www.w3.org/1999/xlink" x="0px" y="0px"
	 width="360px" height="107.451px" viewBox="0 0 360 107.451" enable-background="new 0 0 360 107.451" xml:space="preserve">
<g>
	<linearGradient id="SVGID_1_" gradientUnits="userSpaceOnUse" x1="302.2051" y1="7.8135" x2="302.2051" y2="86.0633">
		<stop  offset="0.1944" style="stop-color:#FFFFFF"/>
		<stop  offset="0.3154" style="stop-color:#CDCCCC"/>
		<stop  offset="0.4747" style="stop-color:#918F8F"/>
		<stop  offset="0.6208" style="stop-color:#615F5F"/>
		<stop  offset="0.7487" style="stop-color:#3F3C3D"/>
		<stop  offset="0.8536" style="stop-color:#2B2728"/>
		<stop  offset="0.9222" style="stop-color:#231F20"/>
	</linearGradient>
	<path fill="url(#SVGID_1_)" d="M354.475,42.823c-1.037-0.29-2.193-0.426-4.627-0.727c-10.071-0.414-34.96-1.381-47.643-1.381
		s-37.571,0.967-47.642,1.381c-2.435,0.301-3.591,0.437-4.628,0.727c-3.165,0.747-3.862,1.883-3.862,4.151v15.544
		c0,2.267,2.43,3.796,4.105,4.105c1.675,0.31,2.736,0.433,4.499,0.602c9.007,0.557,29.905,1.721,47.527,1.738
		c17.621-0.018,38.52-1.182,47.527-1.738c1.763-0.169,2.823-0.292,4.499-0.602s4.105-1.839,4.105-4.105V46.974
		C358.337,44.707,357.64,43.57,354.475,42.823z"/>
	<radialGradient id="SVGID_2_" cx="270.6895" cy="-12.9287" r="78.2831" gradientUnits="userSpaceOnUse">
		<stop  offset="0.2022" style="stop-color:#FFFFFF"/>
		<stop  offset="0.3884" style="stop-color:#FDFDFD"/>
		<stop  offset="0.4971" style="stop-color:#F4F5F5"/>
		<stop  offset="0.5859" style="stop-color:#E6E7E8"/>
		<stop  offset="0.6635" style="stop-color:#D2D4D6"/>
		<stop  offset="0.6889" style="stop-color:#CACCCE"/>
		<stop  offset="1" style="stop-color:#58595B"/>
	</radialGradient>
	<path fill="url(#SVGID_2_)" d="M261.817,43.434c4.956-17.239,21.238-29.886,40.565-29.886c19.273,0,35.521,12.579,40.524,29.748
		c0.017,0.061,0.026,0.092,0.044,0.15c2.874-0.323,5.447-0.821,7.265-1.307c-0.032-0.11-0.041-0.133-0.069-0.242
		c-5.687-20.452-24.916-35.5-47.764-35.5c-22.924,0-42.204,15.147-47.82,35.7C257.089,42.789,258.939,43.079,261.817,43.434z"/>
	<radialGradient id="SVGID_3_" cx="460.1426" cy="112.4609" r="163.0364" gradientUnits="userSpaceOnUse">
		<stop  offset="0.2022" style="stop-color:#FFFFFF"/>
		<stop  offset="0.3445" style="stop-color:#EAEBEC"/>
		<stop  offset="0.5944" style="stop-color:#CACCCE"/>
		<stop  offset="1" style="stop-color:#58595B"/>
	</radialGradient>
	<path fill="url(#SVGID_3_)" d="M342.789,66.026c-0.049,0.154-0.105,0.323-0.131,0.406c-5.27,16.756-21.306,28.944-40.275,28.944
		c-19.118,0-35.257-12.376-40.397-29.333c-3.143,0.557-4.203,0.768-7.309,1.182c5.754,20.351,24.93,35.303,47.706,35.303
		c22.786,0,41.97-14.97,47.713-35.338C347.36,66.854,345.749,66.599,342.789,66.026z"/>
	<radialGradient id="SVGID_4_" cx="289.4932" cy="76.4814" r="50.0527" gradientUnits="userSpaceOnUse">
		<stop  offset="0.2022" style="stop-color:#FFFFFF"/>
		<stop  offset="0.3445" style="stop-color:#EAEBEC"/>
		<stop  offset="0.5944" style="stop-color:#CACCCE"/>
		<stop  offset="1" style="stop-color:#58595B"/>
	</radialGradient>
	<path fill="url(#SVGID_4_)" d="M262.829,43.396c1.193-0.492,2.347-1.278,4.146-1.784c5.363-13.935,19.19-23.857,35.406-23.857
		c16.166,0,29.959,9.862,35.356,23.729c0.02,0.046,0.039,0.104,0.054,0.139c0.928,0.322,3.664,1.431,4.514,1.803
		c0.121,0.003,0.378,0.011,0.646,0.019c-0.017-0.053-0.029-0.099-0.046-0.15c-5.005-17.163-21.252-29.739-40.523-29.739
		c-19.322,0-35.604,12.643-40.562,29.877C262.106,43.434,262.652,43.409,262.829,43.396z"/>
	<path fill="#FFFFFF" d="M302.075,14.722c18.083,0,34.111,10.782,40.182,28.554c0.015,0.042,0.029,0.093,0.049,0.151
		c0.095,0,0.439,0.012,0.646,0.019c-0.018-0.065-0.032-0.102-0.046-0.15c-5.005-17.163-21.252-29.739-40.523-29.739
		c-19.322,0-35.604,12.643-40.562,29.877c0.387-0.005,0.573-0.005,1.01-0.038C268.257,26.525,284.127,14.722,302.075,14.722z"/>
	<radialGradient id="SVGID_5_" cx="329.8838" cy="127.6631" r="94.9756" gradientUnits="userSpaceOnUse">
		<stop  offset="0.2022" style="stop-color:#FFFFFF"/>
		<stop  offset="0.3445" style="stop-color:#EAEBEC"/>
		<stop  offset="0.5944" style="stop-color:#CACCCE"/>
		<stop  offset="1" style="stop-color:#58595B"/>
	</radialGradient>
	<path fill="url(#SVGID_5_)" d="M341.764,66.076c-1.298,0.726-2.915,1.424-4.208,1.832c-0.018,0.042-0.091,0.226-0.107,0.269
		c-5.592,13.484-19.185,23-35.066,23c-15.979,0-29.643-9.634-35.17-23.25c-1.487-0.413-3.711-1.427-4.552-1.851
		c-0.314-0.016-0.484-0.022-0.678-0.032c5.141,16.955,21.281,29.333,40.399,29.333c19.031,0,35.11-12.264,40.328-29.1
		c0.01-0.032,0.068-0.219,0.079-0.251C342.49,66.04,342.03,66.076,341.764,66.076z"/>
	<radialGradient id="SVGID_6_" cx="301.4531" cy="16.2969" r="75.472" gradientUnits="userSpaceOnUse">
		<stop  offset="0.2022" style="stop-color:#FFFFFF"/>
		<stop  offset="0.4033" style="stop-color:#FDFDFD"/>
		<stop  offset="0.5207" style="stop-color:#F4F5F5"/>
		<stop  offset="0.6166" style="stop-color:#E6E7E8"/>
		<stop  offset="0.7004" style="stop-color:#D2D4D6"/>
		<stop  offset="0.7278" style="stop-color:#CACCCE"/>
		<stop  offset="1" style="stop-color:#6D6E70"/>
	</radialGradient>
	<path fill="url(#SVGID_6_)" d="M353.574,43.949c-2.668-0.325-4.486-0.29-10.985-0.515c-0.295-0.009-0.595-0.019-0.899-0.03
		c-11.782-0.403-29.48-0.944-39.484-0.944c-10.005,0-27.702,0.541-39.486,0.944c-0.304,0.011-0.604,0.021-0.898,0.03
		c-6.498,0.225-8.316,0.19-10.984,0.515c-2.667,0.327-4.763,1.495-4.763,3.482v14.413c0,1.985,2.524,3.597,4.763,3.597
		c0,0,28.483,1.758,51.369,1.779c22.885-0.021,51.369-1.779,51.369-1.779c2.238,0,4.763-1.611,4.763-3.597V47.431
		C358.337,45.443,356.24,44.275,353.574,43.949z"/>
	<radialGradient id="SVGID_7_" cx="303.2002" cy="23.8564" r="50.8335" gradientUnits="userSpaceOnUse">
		<stop  offset="0.1111" style="stop-color:#6D6E70"/>
		<stop  offset="0.2455" style="stop-color:#6A6B6D"/>
		<stop  offset="0.3502" style="stop-color:#616163"/>
		<stop  offset="0.4449" style="stop-color:#525153"/>
		<stop  offset="0.5332" style="stop-color:#3C3A3B"/>
		<stop  offset="0.6111" style="stop-color:#231F20"/>
	</radialGradient>
	<path fill-rule="evenodd" clip-rule="evenodd" fill="url(#SVGID_7_)" d="M325.015,50.331c-0.936-2.092-0.605-1.873-2.643-1.927
		c-0.165-0.056-0.606-0.056-1.211-0.056c-0.606,0-0.717,0-1.212,0.056c-1.927,0-1.598-0.11-2.258,1.267
		c0,0-3.305,7.433-4.735,10.518l-0.056,0.109c-0.275,0.55-0.11,0.55,0.331,0.55h2.974c0.22,0,0.33-0.108,0.385-0.219
		c0,0,0.44-0.938,0.991-2.259h7.269c0.551,1.267,0.936,2.203,0.936,2.259c0.057,0.164,0.221,0.219,0.386,0.219h3.085
		c0.439,0,0.55,0.056,0.386-0.329C329.09,59.196,325.511,51.486,325.015,50.331L325.015,50.331z M318.683,55.727
		c0.936-2.202,1.872-4.349,1.872-4.404c0.055-0.11,0.165-0.166,0.33-0.166c0.056-0.055,0.221-0.055,0.386-0.055
		c0.11,0,0.275,0,0.33,0.055c0.11,0,0.221,0.055,0.275,0.221c0.221,0.605,1.047,2.478,1.818,4.349H318.683L318.683,55.727z
		 M279.034,48.239c0.275,0,0.331,0.109,0.331,0.33v11.784c0,0.276-0.056,0.387-0.385,0.387h-2.864c-0.33,0-0.385-0.056-0.385-0.387
		V48.568c0-0.22,0.055-0.33,0.274-0.33H279.034L279.034,48.239z M272.923,48.348c0.329,0,0.386,0.11,0.386,0.386v11.729
		c0,0.33-0.057,0.385-0.386,0.385h-3.359c-1.982,0-2.147,0-2.808-1.101c-1.377-2.148-5.508-8.48-5.508-8.48v9.196
		c0,0.33-0.055,0.385-0.385,0.385h-2.479c-0.33,0-0.385-0.055-0.385-0.385V48.734c0-0.276,0.055-0.386,0.385-0.386
		c0,0,0.661,0,2.863,0c2.147,0,2.423-0.054,3.195,1.047c0.604,0.991,5.615,8.701,5.615,8.701v-9.362
		c0-0.276,0.055-0.386,0.386-0.386H272.923L272.923,48.348z M346.436,48.348c0.33,0,0.386,0.11,0.386,0.386v11.729
		c0,0.33-0.056,0.385-0.386,0.385h-3.358c-1.982,0-2.148,0-2.809-1.101c-1.377-2.148-5.507-8.48-5.507-8.48v9.196
		c0,0.33-0.056,0.385-0.386,0.385h-2.478c-0.33,0-0.386-0.055-0.386-0.385V48.734c0-0.276,0.056-0.386,0.386-0.386
		c0,0,0.66,0,2.863,0c2.146,0,2.424-0.054,3.194,1.047c0.66,0.991,5.616,8.701,5.616,8.701v-9.362c0-0.276,0.056-0.386,0.386-0.386
		H346.436L346.436,48.348z M291.646,53.14c2.202,0.219,3.8,0.605,4.24,2.697c0,0.164,0.055,0.716,0.055,1.323
		c0,0.385,0,0.88-0.11,1.32c-0.385,1.982-1.873,2.367-4.185,2.367h-9.251c-0.331,0-0.386-0.055-0.386-0.385V58.48
		c0-0.331,0.055-0.385,0.386-0.385c0,0,9.196,0,9.36,0c0.386,0,0.496-0.11,0.551-0.387c0-0.221,0-0.331,0-0.495s0-0.274,0-0.331
		c-0.055-0.22-0.11-0.551-0.605-0.604c-1.046-0.055-4.13-0.331-6.223-0.552c-2.698-0.274-3.358-1.43-3.469-2.422
		c-0.056-0.331-0.056-0.771-0.056-1.156c0-0.331,0-0.826,0.056-1.211c0.386-1.763,1.707-2.588,4.019-2.588h8.977
		c0.331,0,0.441,0.056,0.441,0.331v2.038c0,0.275-0.11,0.385-0.441,0.33c0,0-8.59,0-8.811,0c-0.385,0-0.551,0.166-0.605,0.55
		c0,0.055,0,0.11,0,0.221c0,0.11,0,0.165,0,0.275c0,0.275,0.165,0.496,0.55,0.55C287.186,52.754,290.434,53.029,291.646,53.14
		L291.646,53.14z M307.559,53.14c2.203,0.219,3.801,0.605,4.241,2.697c0,0.164,0.055,0.716,0.055,1.323c0,0.385,0,0.88-0.11,1.32
		c-0.385,1.982-1.872,2.367-4.186,2.367h-9.25c-0.331,0-0.386-0.055-0.386-0.385V58.48c0-0.331,0.055-0.385,0.386-0.385
		c0,0,9.196,0,9.361,0c0.385,0,0.495-0.11,0.55-0.387c0-0.221,0-0.331,0-0.495s0-0.274,0-0.331c-0.055-0.22-0.165-0.551-0.606-0.604
		c-1.046-0.055-4.129-0.331-6.222-0.552c-2.698-0.274-3.304-1.43-3.469-2.422c-0.056-0.331-0.056-0.771-0.056-1.156
		c0-0.331,0-0.826,0.056-1.211c0.386-1.763,1.707-2.588,4.019-2.588h8.978c0.329,0,0.44,0.056,0.44,0.331v2.038
		c0,0.275-0.111,0.385-0.44,0.33c0,0-8.59,0-8.812,0c-0.385,0-0.551,0.166-0.605,0.55c0,0.055,0,0.11,0,0.221
		c0,0.11,0,0.165,0,0.275c0,0.275,0.11,0.496,0.551,0.55C303.1,52.754,306.348,53.029,307.559,53.14L307.559,53.14z"/>
	<path fill="#FFFFFF" d="M341.764,66.076c-5.59,16.583-21.312,28.135-39.068,28.135c-17.939,0-33.857-10.612-40.035-28.135
		c-0.228-0.012-0.452-0.021-0.673-0.032c5.14,16.955,21.283,29.333,40.402,29.333c19.125,0,35.271-12.386,40.405-29.351
		C342.457,66.042,342.113,66.059,341.764,66.076z"/>
	<path fill="#9C9EA1" d="M341.798,66.076c-0.013,0-0.023,0-0.034,0c-1.298,0.726-2.915,1.424-4.208,1.832
		c-0.018,0.042-0.091,0.226-0.107,0.269c-1.77,4.266-4.342,8.137-7.532,11.435C334.913,75.956,338.992,71.34,341.798,66.076z"/>
	<path fill="#6D6E70" d="M275.93,80.685c-3.76-3.582-6.753-7.917-8.718-12.758c-1.487-0.413-3.71-1.427-4.552-1.851
		c0.909,1.884,1.973,3.667,3.17,5.33c2.476,3.222,5.475,6.097,8.89,8.527C275.117,80.193,275.521,80.442,275.93,80.685z"/>
	<path fill="#4D4D4F" d="M261.985,66.046c0-0.002,0-0.002,0-0.002l-0.014,0.002c-3.132,0.555-4.194,0.768-7.295,1.18
		c0.25,0.885,0.526,1.76,0.827,2.624L261.985,66.046z"/>
</g>
<text transform="matrix(1 0 0 1 -0.1831 70.7324)" fill="#231F20" font-family="'HelveticaNeueLTStd-Hv'" font-size="44.1106">VALLEY HI</text>
</svg>
