<?xml version="1.0" encoding="utf-8"?>
<!-- Generator: Adobe Illustrator 15.0.0, SVG Export Plug-In . SVG Version: 6.00 Build 0)  -->
<!DOCTYPE svg PUBLIC "-//W3C//DTD SVG 1.1//EN" "http://www.w3.org/Graphics/SVG/1.1/DTD/svg11.dtd">
<svg version="1.1" id="Layer_1" xmlns="http://www.w3.org/2000/svg" xmlns:xlink="http://www.w3.org/1999/xlink" x="0px" y="0px"
	 width="168.667px" height="129.999px" viewBox="0 0 168.667 129.999" enable-background="new 0 0 168.667 129.999"
	 xml:space="preserve">
<polygon fill="#FFFFFF" points="29.667,0 1.167,28.5 84.167,111.5 167.167,28.5 138.667,0 "/>
<polygon opacity="0.3" fill="#FFFFFF" points="45.667,0 1.167,44.5 84.167,127.5 167.167,44.5 122.667,0 "/>
<polygon opacity="0.65" fill="#FFFFFF" points="37.667,0 1.167,36.5 84.167,119.5 167.167,36.5 130.667,0 "/>
<text transform="matrix(1 0 0 1 22.9038 28.4551)"><tspan x="0" y="0" fill="#F2B600" font-family="'Avenir-Black'" font-size="24.9864" letter-spacing="1">HEA</tspan><tspan x="57.718" y="0" fill="#F2B600" font-family="'Avenir-Black'" font-size="24.9864">L</tspan><tspan x="70.361" y="0" fill="#F2B600" font-family="'Avenir-Black'" font-size="24.9864" letter-spacing="1">T</tspan><tspan x="86.202" y="0" fill="#F2B600" font-family="'Avenir-Black'" font-size="24.9864">H</tspan></text>
<text transform="matrix(1 0 0 1 31.6553 48.8643)" fill="#192F6C" font-family="'Avenir-Roman'" font-size="20.822">WELLNESS</text>
<text transform="matrix(1 0 0 1 128.063 29.4326)" fill="#192F6C" font-family="'Avenir-Book'" font-size="27.4851">&amp;</text>
<path fill="#80BC2C" d="M113.374,61.655c-0.333-0.808-0.792-1.505-1.38-2.093s-1.282-1.047-2.083-1.379
	c-0.802-0.333-1.672-0.5-2.609-0.5c-0.938,0-1.807,0.167-2.608,0.5c-0.803,0.333-1.496,0.792-2.084,1.379s-1.048,1.285-1.38,2.093
	c-0.333,0.808-0.499,1.691-0.499,2.652c0,0.962,0.166,1.846,0.499,2.654c0.332,0.808,0.792,1.504,1.38,2.091
	c0.588,0.589,1.281,1.048,2.084,1.38c0.802,0.333,1.67,0.499,2.608,0.499c0.938,0,1.808-0.166,2.609-0.499
	c0.801-0.332,1.495-0.791,2.083-1.38c0.588-0.587,1.047-1.284,1.38-2.091c0.332-0.808,0.498-1.691,0.498-2.654
	C113.872,63.346,113.706,62.462,113.374,61.655 M112.126,66.382c-0.236,0.66-0.578,1.238-1.022,1.736
	c-0.445,0.5-0.989,0.896-1.631,1.193c-0.641,0.297-1.364,0.446-2.172,0.446s-1.531-0.149-2.173-0.446
	c-0.642-0.296-1.184-0.693-1.629-1.193c-0.445-0.499-0.786-1.077-1.024-1.736c-0.237-0.658-0.356-1.351-0.356-2.075
	c0-0.724,0.119-1.415,0.356-2.074c0.238-0.659,0.579-1.237,1.024-1.736c0.445-0.499,0.987-0.896,1.629-1.193
	c0.642-0.296,1.365-0.445,2.173-0.445s1.531,0.149,2.172,0.445c0.642,0.298,1.186,0.695,1.631,1.193
	c0.444,0.5,0.786,1.078,1.022,1.736c0.237,0.66,0.356,1.351,0.356,2.074C112.483,65.031,112.364,65.724,112.126,66.382
	 M88.693,70.611h1.283v-5.858h2.386c1.281,0,2.293-0.282,3.036-0.847c0.741-0.563,1.112-1.409,1.112-2.537s-0.371-1.971-1.112-2.529
	c-0.743-0.558-1.755-0.837-3.036-0.837h-3.669V70.611z M89.976,59.179h2.064c0.57,0,1.054,0.056,1.451,0.169
	c0.398,0.114,0.715,0.27,0.953,0.472c0.237,0.201,0.41,0.436,0.517,0.704c0.107,0.268,0.16,0.548,0.16,0.846
	c0,0.308-0.053,0.596-0.16,0.863c-0.106,0.267-0.279,0.499-0.517,0.694c-0.238,0.195-0.555,0.354-0.953,0.473
	c-0.397,0.118-0.881,0.178-1.451,0.178h-2.064V59.179z M74.216,58.003h-1.728l4.256,5.983l-4.612,6.625h1.602l3.864-5.717
	l3.847,5.717h1.691l-4.63-6.625l4.274-5.983h-1.602l-3.526,5.04L74.216,58.003z M60.717,64.646h6.108v-1.175h-6.108v-4.292h6.536
	v-1.176h-7.817v12.608h8.031v-1.175h-6.75V64.646z"/>
<line fill="none" stroke="#80BC2C" x1="38.911" y1="53.491" x2="129.322" y2="53.491"/>
<line fill="none" stroke="#80BC2C" x1="38.911" y1="6.177" x2="129.322" y2="6.177"/>
<text transform="matrix(1 0 0 1 65.333 88.667)" fill="#192F6C" font-family="'ChunkFive-Roman'" font-size="17">2016</text>
</svg>
